# xmcd
#
# Track frame offsets: 
#        183
#        20808
#        35395
#        57370
#        72520
#        102570
#        125670
#        150233
#        167058
#        189870
#        207933
#        226625
#        243533
#        267008
#        294508
#        311583
#        330283
#
# Disc length: 4599 seconds
#
# Revision: 6
# Processed by: cddbd v1.5.2PL0 Copyright (c) Steve Scherf et al.
# Submitted via: ExactAudioCopy v1.0b3
#
DISCID=e811f511
DTITLE=Megadeth - Punishment is Due (Live)
DYEAR=1993
DGENRE=Thrash Metal
TTITLE0=Symphony of Destruction
TTITLE1=Skin of My Teeth
TTITLE2=Wake Up Dead
TTITLE3=Liar
TTITLE4=In My Darkest Hour
TTITLE5=The Conjuring
TTITLE6=Hook in Mouth
TTITLE7=Angry Again
TTITLE8=Hangar 18
TTITLE9=Foreclosure of a Dream
TTITLE10=Countdown to Extinction
TTITLE11=Lucretia
TTITLE12=Tornado of Souls
TTITLE13=Ashes in Your Mouth
TTITLE14=Symphony of Destruction
TTITLE15=Peace Sells
TTITLE16=Anarchy in the U.K.
EXTD=
EXTT0=
EXTT1=
EXTT2=
EXTT3=
EXTT4=
EXTT5=
EXTT6=
EXTT7=
EXTT8=
EXTT9=
EXTT10=
EXTT11=
EXTT12=
EXTT13=
EXTT14=
EXTT15=
EXTT16=
PLAYORDER=
